<svg width="84" height="84" viewBox="0 0 84 84" fill="none" xmlns="http://www.w3.org/2000/svg">
<path d="M41.9999 4.66797C34.616 4.66797 27.398 6.85753 21.2586 10.9598C15.1191 15.062 10.334 20.8927 7.50835 27.7145C4.68268 34.5362 3.94336 42.0427 5.38387 49.2847C6.82438 56.5266 10.38 63.1788 15.6012 68.4C20.8224 73.6211 27.4745 77.1768 34.7165 78.6173C41.9584 80.0578 49.4649 79.3185 56.2867 76.4928C63.1085 73.6671 68.9391 68.882 73.0414 62.7426C77.1436 56.6032 79.3332 49.3851 79.3332 42.0013C79.3332 32.0999 75.3999 22.604 68.3985 15.6027C61.3972 8.60129 51.9013 4.66797 41.9999 4.66797ZM41.9999 74.668C35.539 74.668 29.2232 72.7521 23.8512 69.1627C18.4792 65.5732 14.2923 60.4714 11.8198 54.5023C9.34733 48.5332 8.70042 41.9651 9.96087 35.6284C11.2213 29.2916 14.3325 23.471 18.901 18.9025C23.4695 14.334 29.2902 11.2228 35.6269 9.96232C41.9636 8.70187 48.5318 9.34878 54.5008 11.8212C60.4699 14.2937 65.5717 18.4807 69.1612 23.8527C72.7507 29.2247 74.6665 35.5405 74.6665 42.0013C74.6665 50.665 71.2249 58.9739 65.0987 65.1001C58.9725 71.2263 50.6636 74.668 41.9999 74.668Z" fill="#553FFB"/>
<path d="M65.3334 28.2332C64.8962 27.7986 64.3048 27.5547 63.6884 27.5547C63.0719 27.5547 62.4805 27.7986 62.0434 28.2332L36.1433 54.0165L22.1433 40.0165C21.7163 39.5555 21.1237 39.283 20.4958 39.2589C19.8678 39.2348 19.256 39.4612 18.795 39.8882C18.334 40.3152 18.0615 40.9079 18.0374 41.5358C18.0133 42.1637 18.2397 42.7755 18.6667 43.2365L36.1433 60.6665L65.3334 31.5465C65.5521 31.3296 65.7256 31.0716 65.8441 30.7872C65.9626 30.5029 66.0236 30.1979 66.0236 29.8899C66.0236 29.5818 65.9626 29.2769 65.8441 28.9925C65.7256 28.7082 65.5521 28.4501 65.3334 28.2332Z" fill="#553FFB"/>
</svg>
