<svg width="24" height="24" viewBox="0 0 24 24" fill="none" xmlns="http://www.w3.org/2000/svg">
<path d="M9 2C7.90694 2 7 2.90694 7 4V7H6C5.448 7 5 6.551 5 6V3.18359C3.839 3.59859 3 4.698 3 6V19C3 20.103 3.897 21 5 21H19C20.103 21 21 20.103 21 19V9C21 7.897 20.103 7 19 7V4C19 2.90694 18.0931 2 17 2H9ZM9 4H11V7H9V4ZM13 4H17V7H13V4ZM5 8.81641C5.31439 8.92856 5.64761 9 6 9H8H9H19V19H5V8.81641ZM16 13C15.448 13 15 13.448 15 14C15 14.552 15.448 15 16 15C16.552 15 17 14.552 17 14C17 13.448 16.552 13 16 13Z" fill="#8892A2"/>
</svg>
