<svg width="18" height="12" viewBox="0 0 18 12" fill="none" xmlns="http://www.w3.org/2000/svg">
<path d="M9 0C3 0 0.75 6 0.75 6C0.75 6 3 12 9 12C15 12 17.25 6 17.25 6C17.25 6 15 0 9 0ZM9 1.5C12.957 1.5 14.9584 4.70032 15.6064 5.99707C14.9577 7.28482 12.9412 10.5 9 10.5C5.043 10.5 3.04155 7.29968 2.39355 6.00293C3.04305 4.71518 5.05875 1.5 9 1.5ZM9 3C7.34325 3 6 4.34325 6 6C6 7.65675 7.34325 9 9 9C10.6567 9 12 7.65675 12 6C12 4.34325 10.6567 3 9 3ZM9 4.5C9.82875 4.5 10.5 5.17125 10.5 6C10.5 6.82875 9.82875 7.5 9 7.5C8.17125 7.5 7.5 6.82875 7.5 6C7.5 5.17125 8.17125 4.5 9 4.5Z" fill="#8892A2"/>
</svg>
