<svg width="44" height="29" viewBox="0 0 44 29" fill="none" xmlns="http://www.w3.org/2000/svg">
<path d="M5.75 28.75C8.92564 28.75 11.5 26.1756 11.5 23C11.5 19.8244 8.92564 17.25 5.75 17.25C2.57436 17.25 0 19.8244 0 23C0 26.1756 2.57436 28.75 5.75 28.75Z" fill="#553FFB"/>
<path d="M6.73687 14.8695C8.98238 17.115 12.6231 17.115 14.8686 14.8695C17.1141 12.624 17.1141 8.98325 14.8686 6.73774C12.6231 4.49222 8.98238 4.49222 6.73687 6.73774C4.49135 8.98325 4.49135 12.624 6.73687 14.8695Z" fill="#8E7FFC"/>
<path d="M17.25 5.75C17.25 8.92564 19.8244 11.5 23 11.5C26.1756 11.5 28.75 8.92564 28.75 5.75C28.75 2.57436 26.1756 0 23 0C19.8244 0 17.25 2.57436 17.25 5.75Z" fill="#B8AEFD"/>
<path d="M31.1315 6.73687C28.886 8.98239 28.886 12.6231 31.1315 14.8686C33.377 17.1141 37.0177 17.1141 39.2632 14.8686C41.5088 12.6231 41.5088 8.98239 39.2632 6.73687C37.0177 4.49136 33.377 4.49136 31.1315 6.73687Z" fill="#DDD9FE"/>
</svg>
