<svg width="18" height="20" viewBox="0 0 18 20" fill="none" xmlns="http://www.w3.org/2000/svg">
<path fill-rule="evenodd" clip-rule="evenodd" d="M2 2C2 0.905745 2.90575 0 4 0H13L18 5V18C18 19.0943 17.0943 20 16 20H4C2.90575 20 2 19.0943 2 18V16C0.895 16 0 15.105 0 14V9C0 7.895 0.895 7 2 7V2ZM12 2H4V7H16V6H12V2ZM2 9H3.5C4.328 9 5 9.672 5 10.5C5 11.328 4.328 12 3.5 12H3V14H2V9ZM14 9H11V14H12V12H13.5996V11H12V10H14V9ZM6 9.02344H7.62891C9.21091 9.02344 10 9.97491 10 11.1289V11.9004C10 13.0684 9.20923 14 7.61523 14H6V9.02344ZM3 11V10H3.5C3.776 10 4 10.224 4 10.5C4 10.776 3.776 11 3.5 11H3ZM7 10.0234V13H7.61523C8.24723 13 9 12.8084 9 11.9004V11.1289C9 10.2149 8.25491 10.0234 7.62891 10.0234H7ZM16 18V16H4V18H16Z" fill="#8892A2"/>
</svg>
