<svg width="18" height="14" viewBox="0 0 18 14" fill="none" xmlns="http://www.w3.org/2000/svg">
<path d="M7.00028 0C6.74441 0 6.48825 0.0994218 6.29325 0.294922L0.637 5.95117C0.246 6.34217 0.246 6.97523 0.637 7.36523L6.29325 13.0215C6.68425 13.4125 7.31731 13.4125 7.70731 13.0215L7.79325 12.9355C8.18425 12.5445 8.18425 11.9115 7.79325 11.5215L3.92997 7.6582H17.0003C17.5523 7.6582 18.0003 7.2102 18.0003 6.6582C18.0003 6.1062 17.5523 5.6582 17.0003 5.6582H3.92997L7.79325 1.79492C8.18425 1.40392 8.18425 0.770859 7.79325 0.380859L7.70731 0.294922C7.51181 0.0994218 7.25616 0 7.00028 0Z" fill="#3D4356"/>
</svg>
