<svg width="14" height="14" viewBox="0 0 14 14" fill="none" xmlns="http://www.w3.org/2000/svg">
<path d="M7.00016 0.333252C3.31816 0.333252 0.333496 3.31792 0.333496 6.99992C0.333496 10.6819 3.31816 13.6666 7.00016 13.6666C10.6822 13.6666 13.6668 10.6819 13.6668 6.99992C13.6668 3.31792 10.6822 0.333252 7.00016 0.333252ZM7.00016 10.3333C6.63216 10.3333 6.3335 10.0346 6.3335 9.66659V6.99992C6.3335 6.63192 6.63216 6.33325 7.00016 6.33325C7.36816 6.33325 7.66683 6.63192 7.66683 6.99992V9.66659C7.66683 10.0346 7.36816 10.3333 7.00016 10.3333ZM7.3335 4.99992H6.66683C6.48283 4.99992 6.3335 4.85059 6.3335 4.66659V3.99992C6.3335 3.81592 6.48283 3.66659 6.66683 3.66659H7.3335C7.5175 3.66659 7.66683 3.81592 7.66683 3.99992V4.66659C7.66683 4.85059 7.5175 4.99992 7.3335 4.99992Z" fill="#FBBC05"/>
</svg>
