<svg width="86" height="86" viewBox="0 0 86 86" fill="none" xmlns="http://www.w3.org/2000/svg">
<circle cx="43" cy="43" r="43" fill="#E3E7ED"/>
<path d="M43.5 23.75C41.9475 23.75 40.6875 25.01 40.6875 26.5625V27.8662C35.8372 29.1164 32.25 33.509 32.25 38.75V50L29.3716 52.168H29.3679C29.1019 52.3374 28.8828 52.5712 28.7311 52.8477C28.5794 53.1242 28.4999 53.4346 28.5 53.75C28.5 54.2473 28.6975 54.7242 29.0492 55.0758C29.4008 55.4275 29.8777 55.625 30.375 55.625H43.5H56.625C57.1223 55.625 57.5992 55.4275 57.9508 55.0758C58.3025 54.7242 58.5 54.2473 58.5 53.75C58.5001 53.4346 58.4206 53.1242 58.2689 52.8477C58.1172 52.5712 57.8981 52.3374 57.6321 52.168L54.75 50V38.75C54.75 33.509 51.1628 29.1164 46.3125 27.8662V26.5625C46.3125 25.01 45.0525 23.75 43.5 23.75ZM39.75 57.5C39.75 59.5625 41.4375 61.25 43.5 61.25C45.5625 61.25 47.25 59.5625 47.25 57.5H39.75Z" fill="#8892A2"/>
</svg>
