<svg width="16" height="20" viewBox="0 0 16 20" fill="none" xmlns="http://www.w3.org/2000/svg">
<path d="M8 0C7.172 0 6.5 0.672 6.5 1.5V2.19531C3.91318 2.86209 2 5.2048 2 8V14L0.464844 15.1562H0.462891C0.320993 15.2466 0.204183 15.3713 0.123271 15.5188C0.0423585 15.6663 -3.99061e-05 15.8318 2.81839e-08 16C2.81839e-08 16.2652 0.105357 16.5196 0.292893 16.7071C0.48043 16.8946 0.734784 17 1 17H8H15C15.2652 17 15.5196 16.8946 15.7071 16.7071C15.8946 16.5196 16 16.2652 16 16C16 15.8318 15.9576 15.6663 15.8767 15.5188C15.7958 15.3713 15.679 15.2466 15.5371 15.1562L14 14V8C14 5.2048 12.0868 2.86209 9.5 2.19531V1.5C9.5 0.672 8.828 0 8 0ZM6 18C6 19.1 6.9 20 8 20C9.1 20 10 19.1 10 18H6Z" fill="#8892A2"/>
</svg>
