<svg width="16" height="16" viewBox="0 0 16 16" fill="none" xmlns="http://www.w3.org/2000/svg">
<path d="M8 7.33399C6.86667 7.33399 6 6.46732 6 5.33398C6 4.20065 6.86667 3.33398 8 3.33398C9.13333 3.33398 10 4.20065 10 5.33398C10 6.46732 9.13333 7.33399 8 7.33399ZM8 4.66732C7.6 4.66732 7.33333 4.93398 7.33333 5.33398C7.33333 5.73398 7.6 6.00065 8 6.00065C8.4 6.00065 8.66667 5.73398 8.66667 5.33398C8.66667 4.93398 8.4 4.66732 8 4.66732ZM12 12.6673H4V10.8007C4 9.53399 5.66667 8.66732 8 8.66732C10.3333 8.66732 12 9.53399 12 10.8007V12.6673ZM5.33333 11.334H10.6667V10.8007C10.6667 10.534 9.73333 10.0007 8 10.0007C6.26667 10.0007 5.33333 10.6007 5.33333 10.8007V11.334Z" fill="#8892A2"/>
<path opacity="0.3" d="M8.00032 4C7.6467 4 7.30756 4.14048 7.05752 4.39052C6.80747 4.64057 6.66699 4.97971 6.66699 5.33333C6.66699 5.68696 6.80747 6.02609 7.05752 6.27614C7.30756 6.52619 7.6467 6.66667 8.00032 6.66667C8.35395 6.66667 8.69309 6.52619 8.94313 6.27614C9.19318 6.02609 9.33366 5.68696 9.33366 5.33333C9.33366 4.97971 9.19318 4.64057 8.94313 4.39052C8.69309 4.14048 8.35395 4 8.00032 4ZM11.3337 12C11.3337 11.8667 11.3337 10.9333 11.3337 10.8C11.3337 9.93333 9.80032 9.33333 8.00032 9.33333C6.20033 9.33333 4.66699 9.93333 4.66699 10.8C4.66699 10.9333 4.66699 11.8667 4.66699 12H11.3337Z" fill="#8892A2"/>
<path d="M12.667 4.66602C12.3134 4.66602 11.9742 4.80649 11.7242 5.05654C11.4741 5.30659 11.3337 5.64573 11.3337 5.99935C11.3337 6.35297 11.4741 6.69211 11.7242 6.94216C11.9742 7.19221 12.3134 7.33268 12.667 7.33268C13.0206 7.33268 13.3598 7.19221 13.6098 6.94216C13.8598 6.69211 14.0003 6.35297 14.0003 5.99935C14.0003 5.64573 13.8598 5.30659 13.6098 5.05654C13.3598 4.80649 13.0206 4.66602 12.667 4.66602ZM15.3337 11.3327C15.3337 11.1993 15.3337 10.266 15.3337 10.1327C15.3337 9.26602 14.1337 8.66602 12.667 8.66602C11.2003 8.66602 10.0003 9.26602 10.0003 10.1327C10.0003 10.1327 11.3337 11.1327 11.3337 11.3327H15.3337ZM3.33366 4.66602C2.98004 4.66602 2.6409 4.80649 2.39085 5.05654C2.1408 5.30659 2.00033 5.64573 2.00033 5.99935C2.00033 6.35297 2.1408 6.69211 2.39085 6.94216C2.6409 7.19221 2.98004 7.33268 3.33366 7.33268C3.68728 7.33268 4.02642 7.19221 4.27647 6.94216C4.52652 6.69211 4.66699 6.35297 4.66699 5.99935C4.66699 5.64573 4.52652 5.30659 4.27647 5.05654C4.02642 4.80649 3.68728 4.66602 3.33366 4.66602ZM4.66699 11.3327C4.66699 11.1327 6.00032 10.1327 6.00032 10.1327C6.00032 9.26602 4.80032 8.66602 3.33366 8.66602C1.86699 8.66602 0.666992 9.26602 0.666992 10.1327C0.666992 10.266 0.666992 11.1993 0.666992 11.3327H4.66699Z" fill="#8892A2"/>
</svg>
