<svg width="16" height="16" viewBox="0 0 16 16" fill="none" xmlns="http://www.w3.org/2000/svg">
<path d="M14.6663 16.0007H8.66634C7.93301 16.0007 7.33301 15.4007 7.33301 14.6673V10.6673C7.33301 9.93398 7.93301 9.33398 8.66634 9.33398H14.6663C15.3997 9.33398 15.9997 9.93398 15.9997 10.6673V14.6673C15.9997 15.4007 15.3997 16.0007 14.6663 16.0007ZM8.66634 10.6673V14.6673H14.6663V10.6673H8.66634Z" fill="#8892A2"/>
<path opacity="0.3" d="M14.6667 15.3333H9.33333H8.66667C8.26667 15.3333 8 15.0667 8 14.6667V10.6667C8 10.2667 8.26667 10 8.66667 10H14.6667C15.0667 10 15.3333 10.2667 15.3333 10.6667V13.3333V14.6667C15.3333 15.0667 15.0667 15.3333 14.6667 15.3333Z" fill="#8892A2"/>
<path d="M13.3333 11.334H8V12.6673H13.3333V11.334Z" fill="#8892A2"/>
<path d="M6.00032 12.6667H3.66699L2.20033 7.33333H13.8003L13.6003 8H15.0003L15.3337 6.86667C15.4003 6.66667 15.3337 6.46667 15.2003 6.26667C15.067 6.06667 14.867 6 14.667 6H1.33366C1.13366 6 0.933659 6.06667 0.800326 6.26667C0.666992 6.4 0.666992 6.66667 0.666992 6.86667L2.40033 13.0667C2.53366 13.6667 3.06699 14.0667 3.66699 14.0667H6.00032V12.6667Z" fill="#8892A2"/>
<path opacity="0.3" d="M8.66634 7.99935H14.2663L14.6663 6.66602H1.33301L3.33301 13.3327H5.99968V10.666C5.99968 9.19935 7.19968 7.99935 8.66634 7.99935Z" fill="#8892A2"/>
<path d="M11.2004 7.33398C11.0004 7.33398 10.8004 7.20065 10.6671 7.06732L8.00039 3.20065L5.33372 7.06732C5.13372 7.40065 4.73372 7.46732 4.40039 7.26732C4.06706 7.06732 4.00039 6.66732 4.20039 6.33398L7.40039 1.66732C7.60039 1.46732 7.80039 1.33398 8.00039 1.33398C8.20039 1.33398 8.40039 1.46732 8.53372 1.60065L11.7337 6.26732C11.9337 6.60065 11.8671 7.00065 11.5337 7.20065C11.4671 7.26732 11.3337 7.33398 11.2004 7.33398Z" fill="#8892A2"/>
</svg>
