<svg width="12" height="12" viewBox="0 0 12 12" fill="none" xmlns="http://www.w3.org/2000/svg">
<path d="M12 10.6667V1.33333C12 0.596667 11.4033 0 10.6667 0H1.33333C0.596667 0 0 0.596667 0 1.33333V10.6667C0 11.4033 0.596667 12 1.33333 12H10.6667C11.4033 12 12 11.4033 12 10.6667ZM5.33333 3.66667V3C5.33333 2.816 5.48267 2.66667 5.66667 2.66667H6.33333C6.51733 2.66667 6.66667 2.816 6.66667 3V3.66667C6.66667 3.85067 6.51733 4 6.33333 4H5.66667C5.48267 4 5.33333 3.85067 5.33333 3.66667ZM5.33333 8.66667V6C5.33333 5.632 5.632 5.33333 6 5.33333C6.368 5.33333 6.66667 5.632 6.66667 6V8.66667C6.66667 9.03467 6.368 9.33333 6 9.33333C5.632 9.33333 5.33333 9.03467 5.33333 8.66667Z" fill="#8892A2"/>
</svg>
