<svg width="24" height="24" viewBox="0 0 24 24" fill="none" xmlns="http://www.w3.org/2000/svg">
<path d="M8 5C7.20435 5 6.44129 5.31607 5.87868 5.87868C5.31607 6.44129 5 7.20435 5 8C5 8.79565 5.31607 9.55871 5.87868 10.1213C6.44129 10.6839 7.20435 11 8 11C8.79565 11 9.55871 10.6839 10.1213 10.1213C10.6839 9.55871 11 8.79565 11 8C11 7.20435 10.6839 6.44129 10.1213 5.87868C9.55871 5.31607 8.79565 5 8 5ZM16 5C15.2044 5 14.4413 5.31607 13.8787 5.87868C13.3161 6.44129 13 7.20435 13 8C13 8.79565 13.3161 9.55871 13.8787 10.1213C14.4413 10.6839 15.2044 11 16 11C16.7956 11 17.5587 10.6839 18.1213 10.1213C18.6839 9.55871 19 8.79565 19 8C19 7.20435 18.6839 6.44129 18.1213 5.87868C17.5587 5.31607 16.7956 5 16 5ZM8 13C5 13 1 14.464 1 16.5V19H15V16.5C15 14.464 11 13 8 13ZM16 13C15.683 13 15.3535 13.0198 15.0215 13.0508C16.2035 13.9158 17 15.059 17 16.5V19H23V16.5C23 14.464 19 13 16 13Z" fill="#553FFB"/>
</svg>
