<svg width="24" height="24" viewBox="0 0 24 24" fill="none" xmlns="http://www.w3.org/2000/svg">
<path d="M0 5V7H14V11V13V16H8.2207C7.67163 15.3907 6.88492 15 6 15C5.11508 15 4.32837 15.3907 3.7793 16H3V15L5 13H1V18H3C3 19.657 4.343 21 6 21C7.657 21 9 19.657 9 18H15C15 19.657 16.343 21 18 21C19.657 21 21 19.657 21 18H22H23V13L20.2754 7.55273C20.1064 7.21373 19.7618 7 19.3828 7H16V5H0ZM1 9V11H8V9H1ZM16 9H18.7637L19.7637 11H16V9ZM16 13H20.7637L21 13.4727V16H20.2207C19.6716 15.3907 18.8849 15 18 15C17.2279 15 16.5316 15.3002 16 15.7793V13ZM6 16.75C6.689 16.75 7.25 17.311 7.25 18C7.25 18.689 6.689 19.25 6 19.25C5.311 19.25 4.75 18.689 4.75 18C4.75 17.311 5.311 16.75 6 16.75ZM18 16.75C18.689 16.75 19.25 17.311 19.25 18C19.25 18.689 18.689 19.25 18 19.25C17.311 19.25 16.75 18.689 16.75 18C16.75 17.311 17.311 16.75 18 16.75Z" fill="#8892A2"/>
</svg>
