<svg width="24" height="24" viewBox="0 0 24 24" fill="none" xmlns="http://www.w3.org/2000/svg">
<path d="M4.41602 1.99609L1.00391 2.01367L1.01367 4.01367L3.08398 4.00391L6.37891 11.9082L5.18164 13.8223C4.34329 15.161 5.36268 17 6.94141 17H19V15H6.94141C6.83013 15 6.8173 14.9781 6.87695 14.8828L8.05273 13H15.5215C16.2475 13 16.9175 12.6057 17.2695 11.9707L20.8711 5.48438C21.2421 4.81838 20.76 4 19.998 4H5.25L4.41602 1.99609ZM7 18C6.46957 18 5.96086 18.2107 5.58579 18.5858C5.21071 18.9609 5 19.4696 5 20C5 20.5304 5.21071 21.0391 5.58579 21.4142C5.96086 21.7893 6.46957 22 7 22C7.53043 22 8.03914 21.7893 8.41421 21.4142C8.78929 21.0391 9 20.5304 9 20C9 19.4696 8.78929 18.9609 8.41421 18.5858C8.03914 18.2107 7.53043 18 7 18ZM17 18C16.4696 18 15.9609 18.2107 15.5858 18.5858C15.2107 18.9609 15 19.4696 15 20C15 20.5304 15.2107 21.0391 15.5858 21.4142C15.9609 21.7893 16.4696 22 17 22C17.5304 22 18.0391 21.7893 18.4142 21.4142C18.7893 21.0391 19 20.5304 19 20C19 19.4696 18.7893 18.9609 18.4142 18.5858C18.0391 18.2107 17.5304 18 17 18Z" fill="#553FFB"/>
</svg>
